<svg width="16" height="17" viewBox="0 0 16 17" fill="none" xmlns="http://www.w3.org/2000/svg">
<path fill-rule="evenodd" clip-rule="evenodd" d="M1 8.29999C1 8.16739 1.05268 8.04021 1.14645 7.94644C1.24021 7.85267 1.36739 7.79999 1.5 7.79999H13.293L10.146 4.65399C10.0521 4.56011 9.99937 4.43277 9.99937 4.29999C9.99937 4.16722 10.0521 4.03988 10.146 3.94599C10.2399 3.85211 10.3672 3.79936 10.5 3.79936C10.6328 3.79936 10.7601 3.85211 10.854 3.94599L14.854 7.94599C14.9006 7.99244 14.9375 8.04762 14.9627 8.10836C14.9879 8.16911 15.0009 8.23423 15.0009 8.29999C15.0009 8.36576 14.9879 8.43088 14.9627 8.49163C14.9375 8.55237 14.9006 8.60755 14.854 8.65399L10.854 12.654C10.7601 12.7479 10.6328 12.8006 10.5 12.8006C10.3672 12.8006 10.2399 12.7479 10.146 12.654C10.0521 12.5601 9.99937 12.4328 9.99937 12.3C9.99937 12.1672 10.0521 12.0399 10.146 11.946L13.293 8.79999H1.5C1.36739 8.79999 1.24021 8.74732 1.14645 8.65355C1.05268 8.55978 1 8.4326 1 8.29999Z" fill="#008061"/>
</svg>
